# xmcd CD database file
#
# Track frame offsets:
#	150
#	18300
#	35850
#	57150
#	78000
#	93675
#	113700
#	126675
#	141825
#	158025
#	180375
#	196125
#
# Disc length: 2790 seconds
#
# Revision: 0
# Processed by: cddbd v1.5.1PL0 Copyright (c) Steve Scherf et al.
# Submitted via: CDex 1.51
#
DISCID=9e0ae40c
DTITLE=Tony Eales - Life 101
DYEAR=2004
DGENRE=Country
TTITLE0=Tony Eales - Living In Sin
TTITLE1=Tony Eales - Sprincar Superstar
TTITLE2=Tony Eales - Caroline
TTITLE3=Tony Eales - Midnight Sun
TTITLE4=Tony Eales - Ain't No Stopping This Heart
TTITLE5=Tony Eales - Rocky Mountain Free
TTITLE6=Tony Eales - On My Way
TTITLE7=Tony Eales - Life 101
TTITLE8=Tony Eales - Summer Rain
TTITLE9=Tony Eales - Give Me A Reason
TTITLE10=Tony Eales - All Alone
TTITLE11=Tony Eales - Rhythm Of Life
EXTD=YEAR: 2004
EXTT0=
EXTT1=
EXTT2=
EXTT3=
EXTT4=
EXTT5=
EXTT6=
EXTT7=
EXTT8=
EXTT9=
EXTT10=
EXTT11=
PLAYORDER=
